<?xml version="1.0" encoding="utf-8"?>
<!-- Generator: Adobe Illustrator 12.0.1, SVG Export Plug-In . SVG Version: 6.00 Build 51448)  -->
<!DOCTYPE svg PUBLIC "-//W3C//DTD SVG 1.1//EN" "http://www.w3.org/Graphics/SVG/1.1/DTD/svg11.dtd" [
	<!ENTITY ns_svg "http://www.w3.org/2000/svg">
	<!ENTITY ns_xlink "http://www.w3.org/1999/xlink">
]>
<svg  version="1.1" id="Ebene_1" xmlns="&ns_svg;" xmlns:xlink="&ns_xlink;"  viewBox="0 0 58 58.049"
	 overflow="visible" enable-background="new 0 0 58 58.049" xml:space="preserve">
<path fill="#FFF" d="M47.465,21.17c5.846,0,10.585-4.738,10.585-10.586C58.05,4.738,53.311,0,47.465,0
	c-5.848,0-10.586,4.738-10.586,10.584C36.878,16.432,41.617,21.17,47.465,21.17z M47.465,2.357c4.541,0,8.226,3.684,8.226,8.228
	c0,4.543-3.685,8.227-8.226,8.227c-4.545,0-8.227-3.684-8.227-8.227C39.238,6.041,42.92,2.357,47.465,2.357z"/>
<path fill="#FFF" d="M20.923,29.025c0-4.474,3.625-8.1,8.1-8.1l0.002-2.313c-5.758,0-10.424,4.656-10.424,10.412
	c0,5.758,4.667,10.422,10.423,10.422c5.756,0,10.41-4.664,10.41-10.421h-2.296c0,4.474-3.641,8.1-8.115,8.1
	C24.549,37.125,20.923,33.499,20.923,29.025z"/>
<path fill="#FFF" d="M13.986,29.024c0,8.306,6.733,15.039,15.038,15.039s15.054-6.733,15.054-15.039l-2.304,0.001
	c0,7.03-5.721,12.728-12.75,12.728c-7.03,0-12.729-5.698-12.729-12.729c0-7.029,5.699-12.726,12.729-12.726l-0.001-2.312
	C20.719,13.987,13.986,20.72,13.986,29.024z"/>
<path fill="#FFF" d="M9.318,29.024c0,10.884,8.823,19.705,19.706,19.705c10.882,0,19.683-8.82,19.683-19.704h-2.321
	c0,9.582-7.783,17.348-17.362,17.348c-9.582,0-17.348-7.766-17.348-17.348c0-9.58,7.766-17.348,17.348-17.348l0.001-2.336
	C18.141,9.342,9.318,18.142,9.318,29.024z"/>
<path fill="#FFF" d="M29.025,4.646c-13.464,0-24.38,10.914-24.38,24.379s10.916,24.38,24.38,24.38
	c13.463,0,24.362-10.914,24.362-24.379l-2.317-0.001c0,12.166-9.879,22.029-22.045,22.029c-12.167,0-22.029-9.863-22.029-22.029
	S16.857,6.995,29.025,6.995V4.646z"/>
<path fill="#FFF" d="M29.025,55.736c-14.753,0-26.713-11.96-26.713-26.712c0-14.753,11.96-26.712,26.713-26.712l0-2.313
	C12.994,0,0,12.994,0,29.024s12.995,29.024,29.025,29.024c16.029,0,29.024-12.992,29.024-29.023l-2.297-0.001
	C55.753,43.776,43.778,55.736,29.025,55.736z"/>

</svg>
